# xmcd
#
# Track frame offsets: 
#        150
#        18750
#        35930
#        57792
#        80410
#        98857
#        118180
#        135337
#        159620
#        182292
#        201115
#        221457
#
# Disc length: 3211 seconds
#
# Revision: 2
# Processed by: cddbd v1.5.2PL0 Copyright (c) Steve Scherf et al.
# Submitted via: ExactAudioCopy v1.0b3
#
DISCID=9a0c890c
DTITLE=Jesse - Never Let You Go
DYEAR=1995
DGENRE=R&B
TTITLE0=This Time
TTITLE1=Don't Stop
TTITLE2=When U Cry I Cry
TTITLE3=The Comfort Of Your Man
TTITLE4=After The Rain
TTITLE5=Never Let You Go
TTITLE6=Love Will Be There
TTITLE7=Love That Will Last
TTITLE8=Love You Right
TTITLE9=Keep It Slow
TTITLE10=Bady, Baby, Baby
TTITLE11=Know That I Love You
EXTD=
EXTT0=
EXTT1=
EXTT2=
EXTT3=
EXTT4=
EXTT5=
EXTT6=
EXTT7=
EXTT8=
EXTT9=
EXTT10=
EXTT11=
PLAYORDER=
